<svg width="1688" height="729" viewBox="0 0 1688 729" fill="none" xmlns="http://www.w3.org/2000/svg">
<rect x="1" width="1685" height="727" rx="20" fill="#EBF2FA"/>
<g filter="url(#filter0_d_414_147)">
<ellipse cx="238.924" cy="284.097" rx="21.5383" ry="22.1709" fill="#A5D5EB"/>
<ellipse cx="296.025" cy="209.335" rx="26.5473" ry="27.8426" fill="#A3D7EA" fill-opacity="0.5"/>
<ellipse cx="447.295" cy="321.221" rx="20.5366" ry="21.1397" fill="#A3D7EA" fill-opacity="0.5"/>
<ellipse cx="371.159" cy="405.779" rx="16.5294" ry="15.9837" fill="#A3D7EA" fill-opacity="0.5"/>
<ellipse cx="247.94" cy="393.405" rx="27.549" ry="28.3582" fill="#82CEE9" fill-opacity="0.7"/>
<ellipse cx="426.257" cy="449.09" rx="21.5383" ry="22.1709" fill="#A3D7EA" fill-opacity="0.5"/>
<ellipse cx="344.111" cy="484.151" rx="24.5437" ry="25.2645" fill="#A5D9EC"/>
<ellipse cx="485.362" cy="217.069" rx="19.5348" ry="20.1085" fill="#A3D7EA" fill-opacity="0.5"/>
<ellipse cx="436.776" cy="227.896" rx="21.0375" ry="21.6553" fill="#82CEE9" fill-opacity="0.7"/>
<ellipse cx="375.667" cy="344.423" rx="30.0535" ry="30.9362" fill="#84D0E9" fill-opacity="0.8"/>
<ellipse cx="157.278" cy="238.724" rx="11.0196" ry="10.8277" fill="#A3D7EA" fill-opacity="0.5"/>
<ellipse cx="223.396" cy="220.162" rx="8.01427" ry="7.73404" fill="#A3D7EA" fill-opacity="0.5"/>
<ellipse cx="196.849" cy="317.611" rx="0.500892" ry="4.12482" fill="#D9D9D9"/>
<ellipse cx="266.473" cy="314.518" rx="25.0446" ry="25.7801" fill="#82CEE9" fill-opacity="0.7"/>
<ellipse cx="301.535" cy="272.238" rx="10.0178" ry="10.3121" fill="#A3D7EA" fill-opacity="0.5"/>
<ellipse cx="185.829" cy="338.751" rx="11.5205" ry="11.8589" fill="#A3D7EA" fill-opacity="0.5"/>
<ellipse cx="469.835" cy="400.108" rx="15.0268" ry="15.4681" fill="#A3D7EA" fill-opacity="0.5"/>
<ellipse cx="221.893" cy="441.356" rx="19.5348" ry="19.5929" fill="#A3D7EA" fill-opacity="0.5"/>
<ellipse cx="555.487" cy="451.152" rx="20.5366" ry="21.1397" fill="#A3D7E8"/>
</g>
<path d="M1673.65 721.487C1669.31 724.186 1665.99 725.42 1660.96 726.564C1659.63 726.867 1658.26 727 1656.9 727H29.2641C28.1216 727 26.9778 726.915 25.8611 726.674C20.766 725.572 17.3102 723.643 11.326 718.797C10.4507 718.088 9.63849 717.297 8.92716 716.424C4.67059 711.198 3.29999 707.514 3.00354 700.715V342.404C3.00354 337.812 4.58369 333.331 7.53218 329.809C60.6248 266.404 93.783 266.058 232.915 441.017C234.209 442.644 235.268 444.536 236.079 446.451C241.742 459.829 250.361 468.943 267.716 483.327C270.494 485.63 273.87 487.146 277.46 487.513C297.25 489.535 309.91 485.647 329.992 478.482C331.714 477.868 333.361 476.997 334.863 475.956C397.655 432.41 456.051 438.322 587.043 486.829C732.577 544.097 940.172 543.522 1108.47 507.96C1338.99 473.93 1384.9 508.71 1673.11 621.962C1680.78 624.973 1686 632.433 1686 640.667V699.828C1686 701.444 1685.82 703.062 1685.37 704.612C1683.55 710.778 1681.15 714.202 1676.98 718.711C1675.99 719.776 1674.88 720.72 1673.65 721.487Z" fill="#97C2ED" fill-opacity="0.9" stroke="#354C8B" stroke-width="3"/>
<path d="M2.00183 395.235V708.251C2.00183 708.951 2.56868 709.517 3.26792 709.517C3.72341 709.517 4.14379 709.762 4.36878 710.158L6.72571 714.307C7.24494 715.221 7.91282 716.042 8.70191 716.737L9.77774 717.684C10.601 718.408 11.3422 719.221 12.076 720.036C15.7256 724.09 19.7136 725.506 26.9857 726.745C28.0193 726.921 29.0679 727 30.1163 727H1656.45C1659.1 727 1661.73 726.472 1664.17 725.462C1673.51 721.602 1675.54 720.736 1678.99 715.688L1679.51 714.93C1682.48 710.59 1683.43 709.207 1684.5 704.959C1684.86 703.552 1685 702.101 1685 700.649V661.125C1685 652.806 1679.75 645.314 1671.96 642.393C1403.36 541.641 1257.58 509.345 1030.53 539.319C785.043 554.102 671.86 545.761 511.257 502.811C452.406 479.656 415.585 479.477 348.015 502.811C284.079 522.259 255.822 513.11 215.403 474.512C214.355 473.512 213.386 472.339 212.584 471.133C118.122 329.124 72.2772 312.027 7.1416 381.978C3.8038 385.563 2.00183 390.337 2.00183 395.235Z" fill="#8DA0D2" fill-opacity="0.8" stroke="#354C8B" stroke-width="3"/>
<g filter="url(#filter1_b_414_147)">
<path d="M308.148 537.809C278.095 540.621 254.163 539.596 234.438 533.727C213.221 527.414 169.957 544.925 179.67 564.817C190.156 586.295 206.208 593.129 230.909 591.852C275.309 584.383 302.156 576.403 321.523 565.355C337.429 556.281 326.381 536.103 308.148 537.809Z" fill="url(#paint0_linear_414_147)" fill-opacity="0.13"/>
</g>
<g filter="url(#filter2_d_414_147)">
<path d="M260.99 503.722L289.528 411.979L300.049 388.418C300.566 387.262 299.88 385.925 298.64 385.67C297.343 385.403 296.668 383.964 297.292 382.796L301.556 374.81L354.498 256.349C359.019 246.232 354.203 234.643 345.007 228.46C318.13 210.388 326.423 192.983 367.545 204.358C372.543 205.741 377.949 203.575 380.263 198.935C383.131 193.181 379.943 186.449 374.42 183.159C356.315 172.374 371.572 157.863 395.771 166.765L420.828 177.607C443.262 186.096 444.364 210.097 417.637 202.766C412.838 201.449 407.536 203.229 405.254 207.652C402.804 212.403 404.815 218.245 409.556 220.716C466.143 250.201 443.702 263.595 417.337 259.802C405.339 258.076 391.514 262.384 386.734 273.524L337.677 387.869C336.986 389.481 336.869 391.494 335.536 392.634C334.704 393.345 333.298 393.695 330.907 393.602C320.828 393.211 311.609 397.834 305.947 406.182C304.815 407.849 303.641 409.268 302.365 410.515C298.769 414.031 295.145 417.721 293.527 422.482L265.433 505.168C264.944 506.607 263.234 507.203 261.956 506.381C261.073 505.812 260.678 504.725 260.99 503.722Z" fill="#C1C1C1" fill-opacity="0.22" shape-rendering="crispEdges"/>
<path d="M260.99 503.722L289.528 411.979L300.049 388.418C300.566 387.262 299.88 385.925 298.64 385.67C297.343 385.403 296.668 383.964 297.292 382.796L301.556 374.81L354.498 256.349C359.019 246.232 354.203 234.643 345.007 228.46C318.13 210.388 326.423 192.983 367.545 204.358C372.543 205.741 377.949 203.575 380.263 198.935C383.131 193.181 379.943 186.449 374.42 183.159C356.315 172.374 371.572 157.863 395.771 166.765L420.828 177.607C443.262 186.096 444.364 210.097 417.637 202.766C412.838 201.449 407.536 203.229 405.254 207.652C402.804 212.403 404.815 218.245 409.556 220.716C466.143 250.201 443.702 263.595 417.337 259.802C405.339 258.076 391.514 262.384 386.734 273.524L337.677 387.869C336.986 389.481 336.869 391.494 335.536 392.634C334.704 393.345 333.298 393.695 330.907 393.602C320.828 393.211 311.609 397.834 305.947 406.182C304.815 407.849 303.641 409.268 302.365 410.515C298.769 414.031 295.145 417.721 293.527 422.482L265.433 505.168C264.944 506.607 263.234 507.203 261.956 506.381C261.073 505.812 260.678 504.725 260.99 503.722Z" stroke="#354C8B" stroke-width="3" shape-rendering="crispEdges"/>
</g>
<rect x="1" width="1685" height="727" rx="20" fill="#EBF2FA" fill-opacity="0.3"/>
<defs>
<filter id="filter0_d_414_147" x="142.259" y="181.492" width="437.765" height="335.923" filterUnits="userSpaceOnUse" color-interpolation-filters="sRGB">
<feFlood flood-opacity="0" result="BackgroundImageFix"/>
<feColorMatrix in="SourceAlpha" type="matrix" values="0 0 0 0 0 0 0 0 0 0 0 0 0 0 0 0 0 0 127 0" result="hardAlpha"/>
<feOffset dy="4"/>
<feGaussianBlur stdDeviation="2"/>
<feComposite in2="hardAlpha" operator="out"/>
<feColorMatrix type="matrix" values="0 0 0 0 0 0 0 0 0 0 0 0 0 0 0 0 0 0 0.25 0"/>
<feBlend mode="normal" in2="BackgroundImageFix" result="effect1_dropShadow_414_147"/>
<feBlend mode="normal" in="SourceGraphic" in2="effect1_dropShadow_414_147" result="shape"/>
</filter>
<filter id="filter1_b_414_147" x="174.27" y="528.418" width="158.907" height="67.5825" filterUnits="userSpaceOnUse" color-interpolation-filters="sRGB">
<feFlood flood-opacity="0" result="BackgroundImageFix"/>
<feGaussianBlur in="BackgroundImageFix" stdDeviation="2"/>
<feComposite in2="SourceAlpha" operator="in" result="effect1_backgroundBlur_414_147"/>
<feBlend mode="normal" in="SourceGraphic" in2="effect1_backgroundBlur_414_147" result="shape"/>
</filter>
<filter id="filter2_d_414_147" x="255.384" y="162.501" width="194.909" height="353.754" filterUnits="userSpaceOnUse" color-interpolation-filters="sRGB">
<feFlood flood-opacity="0" result="BackgroundImageFix"/>
<feColorMatrix in="SourceAlpha" type="matrix" values="0 0 0 0 0 0 0 0 0 0 0 0 0 0 0 0 0 0 127 0" result="hardAlpha"/>
<feOffset dy="4"/>
<feGaussianBlur stdDeviation="2"/>
<feComposite in2="hardAlpha" operator="out"/>
<feColorMatrix type="matrix" values="0 0 0 0 0 0 0 0 0 0 0 0 0 0 0 0 0 0 0.25 0"/>
<feBlend mode="normal" in2="BackgroundImageFix" result="effect1_dropShadow_414_147"/>
<feBlend mode="normal" in="SourceGraphic" in2="effect1_dropShadow_414_147" result="shape"/>
</filter>
<linearGradient id="paint0_linear_414_147" x1="295.524" y1="619.15" x2="311.921" y2="514.731" gradientUnits="userSpaceOnUse">
<stop stop-color="#2CB6E1"/>
<stop offset="1" stop-color="white"/>
</linearGradient>
</defs>
</svg>
