<svg width="173" height="68" viewBox="0 0 173 68" fill="none" xmlns="http://www.w3.org/2000/svg">
<path d="M13.635 48.36C11.355 48.36 9.3 47.85 7.47 46.83C5.64 45.78 4.185 44.325 3.105 42.465C2.055 40.605 1.53 38.415 1.53 35.895C1.53 33.345 2.055 31.14 3.105 29.28C4.185 27.42 5.64 25.98 7.47 24.96C9.3 23.94 11.355 23.43 13.635 23.43C15.675 23.43 17.46 23.88 18.99 24.78C20.52 25.68 21.705 27.045 22.545 28.875C23.385 30.705 23.805 33.045 23.805 35.895C23.805 38.715 23.4 41.055 22.59 42.915C21.78 44.745 20.61 46.11 19.08 47.01C17.58 47.91 15.765 48.36 13.635 48.36ZM14.85 42.6C15.99 42.6 17.025 42.33 17.955 41.79C18.885 41.25 19.62 40.485 20.16 39.495C20.73 38.475 21.015 37.275 21.015 35.895C21.015 34.485 20.73 33.285 20.16 32.295C19.62 31.305 18.885 30.54 17.955 30C17.025 29.46 15.99 29.19 14.85 29.19C13.68 29.19 12.63 29.46 11.7 30C10.77 30.54 10.02 31.305 9.45 32.295C8.91 33.285 8.64 34.485 8.64 35.895C8.64 37.275 8.91 38.475 9.45 39.495C10.02 40.485 10.77 41.25 11.7 41.79C12.63 42.33 13.68 42.6 14.85 42.6ZM21.195 48V43.05L21.33 35.85L20.88 28.695V14.61H27.9V48H21.195ZM56.4244 48.36C53.8144 48.36 51.4894 47.835 49.4494 46.785C47.4094 45.705 45.8044 44.22 44.6344 42.33C43.4944 40.44 42.9244 38.295 42.9244 35.895C42.9244 33.465 43.4944 31.32 44.6344 29.46C45.8044 27.57 47.4094 26.1 49.4494 25.05C51.4894 23.97 53.8144 23.43 56.4244 23.43C58.9744 23.43 61.1944 23.97 63.0844 25.05C64.9744 26.1 66.3694 27.615 67.2694 29.595L61.8244 32.52C61.1944 31.38 60.3994 30.54 59.4394 30C58.5094 29.46 57.4894 29.19 56.3794 29.19C55.1794 29.19 54.0994 29.46 53.1394 30C52.1794 30.54 51.4144 31.305 50.8444 32.295C50.3044 33.285 50.0344 34.485 50.0344 35.895C50.0344 37.305 50.3044 38.505 50.8444 39.495C51.4144 40.485 52.1794 41.25 53.1394 41.79C54.0994 42.33 55.1794 42.6 56.3794 42.6C57.4894 42.6 58.5094 42.345 59.4394 41.835C60.3994 41.295 61.1944 40.44 61.8244 39.27L67.2694 42.24C66.3694 44.19 64.9744 45.705 63.0844 46.785C61.1944 47.835 58.9744 48.36 56.4244 48.36ZM86.1613 48V43.275L85.7113 42.24V33.78C85.7113 32.28 85.2463 31.11 84.3163 30.27C83.4163 29.43 82.0213 29.01 80.1313 29.01C78.8413 29.01 77.5663 29.22 76.3063 29.64C75.0763 30.03 74.0263 30.57 73.1563 31.26L70.6363 26.355C71.9563 25.425 73.5463 24.705 75.4063 24.195C77.2663 23.685 79.1563 23.43 81.0763 23.43C84.7663 23.43 87.6313 24.3 89.6713 26.04C91.7113 27.78 92.7313 30.495 92.7313 34.185V48H86.1613ZM78.7813 48.36C76.8913 48.36 75.2713 48.045 73.9213 47.415C72.5713 46.755 71.5363 45.87 70.8163 44.76C70.0963 43.65 69.7363 42.405 69.7363 41.025C69.7363 39.585 70.0813 38.325 70.7713 37.245C71.4913 36.165 72.6163 35.325 74.1463 34.725C75.6763 34.095 77.6713 33.78 80.1313 33.78H86.5663V37.875H80.8963C79.2463 37.875 78.1063 38.145 77.4763 38.685C76.8763 39.225 76.5763 39.9 76.5763 40.71C76.5763 41.61 76.9213 42.33 77.6113 42.87C78.3313 43.38 79.3063 43.635 80.5363 43.635C81.7063 43.635 82.7563 43.365 83.6863 42.825C84.6163 42.255 85.2913 41.43 85.7113 40.35L86.7913 43.59C86.2813 45.15 85.3513 46.335 84.0013 47.145C82.6513 47.955 80.9113 48.36 78.7813 48.36ZM99.0847 48V23.79H105.79V30.63L104.845 28.65C105.565 26.94 106.72 25.65 108.31 24.78C109.9 23.88 111.835 23.43 114.115 23.43V29.91C113.815 29.88 113.545 29.865 113.305 29.865C113.065 29.835 112.81 29.82 112.54 29.82C110.62 29.82 109.06 30.375 107.86 31.485C106.69 32.565 106.105 34.26 106.105 36.57V48H99.0847ZM130.128 48.36C127.368 48.36 124.938 47.82 122.838 46.74C120.768 45.66 119.163 44.19 118.023 42.33C116.883 40.44 116.313 38.295 116.313 35.895C116.313 33.465 116.868 31.32 117.978 29.46C119.118 27.57 120.663 26.1 122.613 25.05C124.563 23.97 126.768 23.43 129.228 23.43C131.598 23.43 133.728 23.94 135.618 24.96C137.538 25.95 139.053 27.39 140.163 29.28C141.273 31.14 141.828 33.375 141.828 35.985C141.828 36.255 141.813 36.57 141.783 36.93C141.753 37.26 141.723 37.575 141.693 37.875H122.028V33.78H138.003L135.303 34.995C135.303 33.735 135.048 32.64 134.538 31.71C134.028 30.78 133.323 30.06 132.423 29.55C131.523 29.01 130.473 28.74 129.273 28.74C128.073 28.74 127.008 29.01 126.078 29.55C125.178 30.06 124.473 30.795 123.963 31.755C123.453 32.685 123.198 33.795 123.198 35.085V36.165C123.198 37.485 123.483 38.655 124.053 39.675C124.653 40.665 125.478 41.43 126.528 41.97C127.608 42.48 128.868 42.735 130.308 42.735C131.598 42.735 132.723 42.54 133.683 42.15C134.673 41.76 135.573 41.175 136.383 40.395L140.118 44.445C139.008 45.705 137.613 46.68 135.933 47.37C134.253 48.03 132.318 48.36 130.128 48.36Z" fill="white"/>
<path d="M39.397 14.25V17.5898C39.397 18.542 39.2139 19.5234 38.8477 20.5342C38.4961 21.5449 38.02 22.5044 37.4194 23.4126C36.8188 24.3062 36.1597 25.0679 35.4419 25.6978L32.4756 23.9839C33.0176 23.1196 33.479 22.1821 33.8599 21.1714C34.2407 20.146 34.4312 18.9595 34.4312 17.6118V14.25H39.397Z" fill="#3FBDEC"/>
</svg>
